<svg width="81" height="102" viewBox="0 0 81 102" fill="none" xmlns="http://www.w3.org/2000/svg">
<path fill-rule="evenodd" clip-rule="evenodd" d="M76.1753 50.8373C76.8366 50.9307 77.4728 51.1536 78.0478 51.4932C78.6228 51.8328 79.1251 52.2825 79.5261 52.8165C79.9271 53.3505 80.2188 53.9583 80.3845 54.6052C80.5503 55.2521 80.5869 55.9253 80.4922 56.5863C79.2192 65.3928 75.0918 73.5384 68.7433 79.7731C62.3949 86.0078 54.176 89.9872 45.3479 91.1008V96.4943C45.3479 97.8413 44.8129 99.133 43.8604 100.085C42.908 101.038 41.6162 101.573 40.2693 101.573C38.9224 101.573 37.6306 101.038 36.6782 100.085C35.7257 99.133 35.1906 97.8413 35.1906 96.4943V91.1008C26.3638 89.9854 18.1466 86.0052 11.7992 79.7707C5.45192 73.5363 1.32501 65.3917 0.0514776 56.5863C-0.139788 55.2528 0.2065 53.898 1.01416 52.8198C1.82182 51.7417 3.0247 51.0285 4.35817 50.8373C5.69164 50.646 7.04648 50.9923 8.12463 51.8C9.20279 52.6076 9.91594 53.8105 10.1072 55.144C11.1652 62.3882 14.7951 69.0098 20.3333 73.7979C25.8716 78.5861 32.9482 81.2211 40.2693 81.2211C47.5904 81.2211 54.667 78.5861 60.2052 73.7979C65.7435 69.0098 69.3734 62.3882 70.4314 55.144C70.526 54.4837 70.7498 53.8485 71.0899 53.2747C71.4301 52.7008 71.8799 52.1997 72.4138 51.7997C72.9477 51.3998 73.5551 51.109 74.2014 50.9438C74.8476 50.7787 75.5151 50.7425 76.1753 50.8373ZM40.2693 0C47.004 0 53.4629 2.67535 58.225 7.43751C62.9872 12.1997 65.6625 18.6585 65.6625 25.3932V50.7865C65.6625 57.5212 62.9872 63.9801 58.225 68.7422C53.4629 73.5044 47.004 76.1797 40.2693 76.1797C33.5346 76.1797 27.0757 73.5044 22.3136 68.7422C17.5514 63.9801 14.8761 57.5212 14.8761 50.7865V25.3932C14.8761 18.6585 17.5514 12.1997 22.3136 7.43751C27.0757 2.67535 33.5346 0 40.2693 0ZM40.2693 10.1573C36.2285 10.1573 32.3531 11.7625 29.4959 14.6198C26.6386 17.4771 25.0334 21.3524 25.0334 25.3932V50.7865C25.0334 54.8273 26.6386 58.7026 29.4959 61.5599C32.3531 64.4172 36.2285 66.0224 40.2693 66.0224C44.3101 66.0224 48.1854 64.4172 51.0427 61.5599C53.9 58.7026 55.5052 54.8273 55.5052 50.7865V25.3932C55.5052 21.3524 53.9 17.4771 51.0427 14.6198C48.1854 11.7625 44.3101 10.1573 40.2693 10.1573Z" fill="black"/>
</svg>
