<svg width="15" height="15" viewBox="0 0 15 15" fill="none" xmlns="http://www.w3.org/2000/svg">
<path fill-rule="evenodd" clip-rule="evenodd" d="M4.85392 2.146C4.90048 2.19245 4.93742 2.24762 4.96263 2.30837C4.98784 2.36911 5.00081 2.43423 5.00081 2.5C5.00081 2.56577 4.98784 2.63089 4.96263 2.69163C4.93742 2.75238 4.90048 2.80756 4.85392 2.854L3.70692 4H8.99992C10.1934 4 11.338 4.47411 12.1819 5.31802C13.0258 6.16193 13.4999 7.30653 13.4999 8.5C13.4999 9.69348 13.0258 10.8381 12.1819 11.682C11.338 12.5259 10.1934 13 8.99992 13H4.99992C4.86731 13 4.74013 12.9473 4.64636 12.8536C4.5526 12.7598 4.49992 12.6326 4.49992 12.5C4.49992 12.3674 4.5526 12.2402 4.64636 12.1464C4.74013 12.0527 4.86731 12 4.99992 12H8.99992C9.92817 12 10.8184 11.6313 11.4748 10.9749C12.1312 10.3185 12.4999 9.42826 12.4999 8.5C12.4999 7.57174 12.1312 6.6815 11.4748 6.02513C10.8184 5.36875 9.92817 5 8.99992 5H3.70692L4.85392 6.146C4.90041 6.19249 4.93728 6.24768 4.96244 6.30842C4.9876 6.36916 5.00055 6.43426 5.00055 6.5C5.00055 6.56574 4.9876 6.63085 4.96244 6.69158C4.93728 6.75232 4.90041 6.80751 4.85392 6.854C4.80743 6.90049 4.75224 6.93737 4.6915 6.96252C4.63076 6.98768 4.56566 7.00063 4.49992 7.00063C4.43417 7.00063 4.36907 6.98768 4.30833 6.96252C4.24759 6.93737 4.19241 6.90049 4.14592 6.854L2.14592 4.854C2.09935 4.80756 2.06241 4.75238 2.0372 4.69163C2.012 4.63089 1.99902 4.56577 1.99902 4.5C1.99902 4.43423 2.012 4.36911 2.0372 4.30837C2.06241 4.24762 2.09935 4.19245 2.14592 4.146L4.14592 2.146C4.19236 2.09944 4.24754 2.0625 4.30828 2.03729C4.36903 2.01208 4.43415 1.99911 4.49992 1.99911C4.56568 1.99911 4.63081 2.01208 4.69155 2.03729C4.7523 2.0625 4.80747 2.09944 4.85392 2.146Z" fill="black"/>
</svg>
