<svg width="96" height="100" viewBox="0 0 96 100" fill="none" xmlns="http://www.w3.org/2000/svg">
<path d="M84.2808 38.5424C82.3129 38.5494 80.3817 39.075 78.6815 40.066C77.6546 38.4372 76.2328 37.0943 74.548 36.162C72.8633 35.2298 70.9703 34.7383 69.0448 34.7334C67.077 34.7405 65.1457 35.266 63.4456 36.257C62.0598 34.0764 59.976 32.4299 57.5341 31.5859C55.0922 30.742 52.4363 30.7505 49.9999 31.61V11.8795C49.9999 8.84886 48.796 5.94236 46.653 3.79939C44.51 1.65642 41.6035 0.452515 38.5729 0.452515C35.5423 0.452515 32.6358 1.65642 30.4928 3.79939C28.3499 5.94236 27.1459 8.84886 27.1459 11.8795V54.1592L18.6519 48.3696C16.7047 46.9194 14.3378 46.1438 11.91 46.1603C9.64357 46.1548 7.42667 46.8233 5.54116 48.0809C3.65565 49.3385 2.1867 51.1284 1.32109 53.223C0.455476 55.3176 0.232296 57.6223 0.679926 59.8441C1.12756 62.0659 2.22577 64.1044 3.83495 65.7004L34.3068 93.506C38.6209 97.3673 44.2102 99.4972 49.9999 99.4862H69.0448C76.1162 99.4862 82.8981 96.677 87.8983 91.6768C92.8986 86.6765 95.7077 79.8947 95.7077 72.8232V49.9693C95.7077 46.9387 94.5038 44.0322 92.3608 41.8893C90.2179 39.7463 87.3114 38.5424 84.2808 38.5424ZM88.0897 72.8232C88.0897 77.8743 86.0832 82.7184 82.5116 86.29C78.94 89.8617 74.0958 91.8682 69.0448 91.8682H49.9999C46.1498 91.9147 42.4138 90.5611 39.4871 88.0592L9.20562 60.2536C8.50193 59.5441 8.10522 58.5866 8.10101 57.5873C8.10101 56.8799 8.298 56.1865 8.66988 55.5848C9.04177 54.9831 9.57388 54.4968 10.2066 54.1804C10.8393 53.8641 11.5476 53.7302 12.2521 53.7937C12.9566 53.8572 13.6295 54.1157 14.1954 54.5401L34.7639 68.6334V11.8795C34.7639 10.8693 35.1652 9.90044 35.8795 9.18611C36.5939 8.47179 37.5627 8.07049 38.5729 8.07049C39.5831 8.07049 40.5519 8.47179 41.2663 9.18611C41.9806 9.90044 42.3819 10.8693 42.3819 11.8795V53.7783H49.9999V42.3514C49.9999 41.3412 50.4012 40.3723 51.1155 39.658C51.8298 38.9437 52.7986 38.5424 53.8089 38.5424C54.8191 38.5424 55.7879 38.9437 56.5022 39.658C57.2165 40.3723 57.6178 41.3412 57.6178 42.3514V53.7783H65.2358V46.1603C65.2358 45.1501 65.6371 44.1813 66.3514 43.467C67.0658 42.7527 68.0346 42.3514 69.0448 42.3514C70.055 42.3514 71.0238 42.7527 71.7382 43.467C72.4525 44.1813 72.8538 45.1501 72.8538 46.1603V53.7783H80.4718V49.9693C80.4718 48.9591 80.8731 47.9903 81.5874 47.276C82.3017 46.5616 83.2705 46.1603 84.2808 46.1603C85.291 46.1603 86.2598 46.5616 86.9741 47.276C87.6884 47.9903 88.0897 48.9591 88.0897 49.9693V72.8232Z" fill="#9F9F9F"/>
</svg>
