<svg width="23" height="22" viewBox="0 0 23 22" fill="none" xmlns="http://www.w3.org/2000/svg">
<rect width="23" height="22" fill="#F5F5F5"/>
<g clip-path="url(#clip0_0_1)" filter="url(#filter0_d_0_1)">
<rect width="1763" height="1800" transform="translate(-1715 -19)" fill="white"/>
<mask id="path-1-inside-1_0_1" fill="white">
<path d="M-25.4584 -19H48V41H-25.4584V-19Z"/>
</mask>
<path d="M-25.4584 -19H48V41H-25.4584V-19Z" fill="#FFFCF5"/>
<path d="M48 41V40H-25.4584V41V42H48V41Z" fill="black" mask="url(#path-1-inside-1_0_1)"/>
<path d="M19.9088 13.136L19.8098 12.141L19.7768 12.144L19.7448 12.15L19.9088 13.136ZM19.9088 13.136L20.0088 14.131L20.0418 14.128L20.0738 14.123L19.9088 13.136ZM15.8688 18.618L16.5018 17.844L16.4938 17.838L15.8688 18.618ZM15.8688 18.618L15.2358 19.392L15.2438 19.399L15.8688 18.618ZM6.67277 18.618L6.03977 17.845L6.02377 17.858L6.00877 17.871L6.67277 18.618ZM6.67277 18.618L7.30577 19.393L7.32177 19.38L7.33677 19.366L6.67277 18.618ZM2.63177 8.86399V7.86399H2.58177L2.53277 7.86899L2.63177 8.86399ZM2.63177 8.86399V9.86399H2.68177L2.73177 9.85899L2.63177 8.86399ZM14.4018 2.26099C14.3853 2.06864 14.3616 1.87688 14.3328 1.68599C14.3019 1.47584 14.2378 1.27196 14.1428 1.08199L12.3658 1.99999C12.3428 1.95499 12.3478 1.93899 12.3608 2.01799C12.3758 2.10699 12.3888 2.23099 12.4118 2.46099L14.4018 2.26099ZM14.4968 3.21099C14.5598 3.29299 14.5388 3.32999 14.5038 3.13499C14.4708 2.94899 14.4448 2.68799 14.4018 2.26099L12.4108 2.45999C12.4508 2.85399 12.4848 3.20799 12.5358 3.48999C12.5848 3.75999 12.6708 4.11499 12.9058 4.42299L14.4968 3.21099ZM14.4968 3.21099L12.9058 4.42299C13.1198 4.70384 13.4043 4.92302 13.7305 5.05826C14.0567 5.19351 14.4128 5.23999 14.7628 5.19299L14.4968 3.21099ZM15.2348 2.60599C15.0107 2.7954 14.7802 2.97717 14.5438 3.15099C14.3808 3.26399 14.3938 3.22399 14.4968 3.21099L14.7628 5.19299C15.1468 5.14099 15.4588 4.95099 15.6848 4.79299C15.9198 4.63099 16.1948 4.40499 16.5008 4.15399L15.2348 2.60599ZM16.2508 1.95599C16.0495 2.02295 15.8601 2.12152 15.6898 2.24799C15.5498 2.34799 15.3928 2.47699 15.2348 2.60599L16.5008 4.15399C16.6798 4.00799 16.7768 3.92899 16.8508 3.87699C16.9158 3.82999 16.9068 3.84599 16.8598 3.86099L16.2508 1.95599ZM17.6548 2.02599C17.2107 1.83353 16.7118 1.80866 16.2508 1.95599L16.8598 3.86099L17.6548 2.02599ZM18.6008 2.77399C18.4661 2.63555 18.3271 2.50148 18.1838 2.37199C18.0266 2.22926 17.8477 2.11246 17.6538 2.02599L16.8598 3.86099C16.8138 3.84099 16.8068 3.82499 16.8668 3.87799C16.9348 3.93799 17.0238 4.02499 17.1868 4.18799L18.6008 2.77399ZM19.4948 3.66799L18.6008 2.77399L17.1868 4.18799L18.0808 5.08199L19.4948 3.66799ZM20.2428 4.61399C20.1563 4.42008 20.0395 4.24117 19.8968 4.08399C19.7673 3.94105 19.6332 3.80231 19.4948 3.66799L18.0808 5.08299C18.2438 5.24599 18.3308 5.33499 18.3908 5.40299C18.4438 5.46299 18.4278 5.45599 18.4078 5.40999L20.2428 4.61399ZM20.3128 6.01799C20.4601 5.55694 20.4352 5.0581 20.2428 4.61399L18.4078 5.40999L20.3128 6.01799ZM19.6628 7.03399C19.787 6.8862 19.9063 6.73446 20.0208 6.57899C20.1268 6.43099 20.2408 6.24699 20.3128 6.01799L18.4078 5.40999C18.4228 5.36299 18.4378 5.35299 18.3918 5.41899C18.3398 5.49199 18.2618 5.58899 18.1148 5.76799L19.6628 7.03399ZM19.0578 7.77299C19.0448 7.87599 19.0048 7.88799 19.1178 7.72499C19.2248 7.56999 19.3908 7.36599 19.6628 7.03399L18.1148 5.76799C17.8648 6.07399 17.6378 6.34899 17.4748 6.58399C17.3178 6.80999 17.1278 7.12199 17.0758 7.50599L19.0578 7.77299ZM19.0578 7.77299L17.0758 7.50599C17.0288 7.85594 17.0753 8.2121 17.2105 8.53827C17.3457 8.86443 17.5649 9.14898 17.8458 9.36299L19.0578 7.77299ZM20.0078 7.86799C19.7154 7.84353 19.4239 7.80918 19.1338 7.76499C18.9388 7.72999 18.9758 7.70999 19.0578 7.77299L17.8458 9.36299C18.1538 9.59799 18.5078 9.68399 18.7798 9.73299C19.0608 9.78299 19.4148 9.81799 19.8088 9.85799L20.0078 7.86799ZM21.1868 8.12599C20.9968 8.03099 20.7929 7.96685 20.5828 7.93599C20.3919 7.90716 20.2001 7.88448 20.0078 7.86799L19.8088 9.85799C19.9568 9.871 20.1045 9.88767 20.2518 9.90799C20.3318 9.92199 20.3148 9.92699 20.2698 9.90399L21.1868 8.12599ZM22.1298 9.16899C21.952 8.71864 21.617 8.34806 21.1868 8.12599L20.2708 9.90599L22.1298 9.16899ZM22.2698 10.367C22.2698 10.163 22.2698 9.95999 22.2588 9.78799C22.2487 9.57573 22.2048 9.36644 22.1288 9.16799L20.2708 9.90599C20.2528 9.85899 20.2588 9.84299 20.2648 9.92299C20.2708 10.013 20.2708 10.138 20.2708 10.369L22.2698 10.367ZM22.2698 11.631V10.367H20.2698V11.631H22.2698ZM22.1298 12.829C22.2178 12.606 22.2468 12.392 22.2588 12.209C22.2698 12.038 22.2698 11.835 22.2698 11.631H20.2698C20.2698 11.862 20.2698 11.987 20.2638 12.077C20.2578 12.157 20.2518 12.141 20.2698 12.094L22.1298 12.829ZM21.1868 13.872C21.617 13.6499 21.952 13.2793 22.1298 12.829L20.2708 12.095L21.1868 13.872ZM20.0078 14.13C20.2118 14.11 20.4128 14.09 20.5828 14.062C20.7628 14.032 20.9728 13.982 21.1868 13.872L20.2708 12.095C20.3148 12.072 20.3318 12.077 20.2528 12.09C20.1056 12.1111 19.9579 12.1281 19.8098 12.141L20.0078 14.13ZM19.0588 14.225C18.9758 14.288 18.9388 14.268 19.1338 14.233C19.3198 14.2 19.5808 14.173 20.0078 14.13L19.8088 12.14C19.4158 12.18 19.0608 12.214 18.7798 12.265C18.5088 12.314 18.1538 12.4 17.8458 12.635L19.0588 14.225ZM19.0588 14.225L17.8458 12.635C17.5649 12.849 17.3457 13.1335 17.2105 13.4597C17.0753 13.7859 17.0288 14.142 17.0758 14.492L19.0588 14.225ZM19.6628 14.963C19.4734 14.7392 19.2916 14.5091 19.1178 14.273C19.0048 14.11 19.0458 14.122 19.0588 14.225L17.0758 14.492C17.1278 14.876 17.3178 15.188 17.4758 15.414C17.6388 15.649 17.8648 15.924 18.1148 16.23L19.6628 14.963ZM20.3128 15.979C20.2457 15.778 20.1472 15.589 20.0208 15.419C19.9208 15.278 19.7918 15.122 19.6628 14.963L18.1148 16.23C18.2608 16.409 18.3398 16.505 18.3918 16.579C18.4388 16.644 18.4238 16.636 18.4078 16.589L20.3128 15.979ZM20.2428 17.384C20.4355 16.9396 20.4603 16.4403 20.3128 15.979L18.4078 16.589L20.2428 17.384ZM19.4948 18.33C19.6398 18.185 19.7828 18.043 19.8968 17.913C20.0168 17.775 20.1468 17.604 20.2428 17.383L18.4078 16.588C18.4278 16.542 18.4438 16.536 18.3908 16.596C18.3308 16.664 18.2438 16.752 18.0808 16.916L19.4948 18.33ZM18.6008 19.223L19.4948 18.33L18.0808 16.916L17.1868 17.809L18.6008 19.223ZM17.6548 19.972C17.8488 19.8852 18.0277 19.7681 18.1848 19.625C18.3138 19.512 18.4568 19.368 18.6008 19.223L17.1868 17.809C17.083 17.9153 16.9763 18.0186 16.8668 18.119C16.8068 18.173 16.8138 18.157 16.8598 18.137L17.6548 19.972ZM16.2508 20.042C16.7118 20.1893 17.2107 20.1644 17.6548 19.972L16.8598 18.137L16.2508 20.042ZM15.2348 19.392C15.3928 19.521 15.5488 19.65 15.6898 19.75C15.8378 19.855 16.0218 19.969 16.2508 20.042L16.8598 18.137C16.9068 18.152 16.9158 18.167 16.8498 18.121C16.7309 18.0319 16.6145 17.9395 16.5008 17.844L15.2348 19.392ZM14.4968 18.788C14.3938 18.773 14.3808 18.733 14.5438 18.846C14.6988 18.954 14.9018 19.119 15.2338 19.391L16.5008 17.844C16.1948 17.593 15.9198 17.367 15.6848 17.204C15.4588 17.046 15.1468 16.857 14.7628 16.805L14.4968 18.788ZM14.4968 18.788L14.7628 16.805C14.4128 16.758 14.0567 16.8045 13.7305 16.9397C13.4043 17.075 13.1198 17.2941 12.9058 17.575L14.4968 18.788ZM14.4008 19.737C14.4438 19.31 14.4708 19.048 14.5038 18.863C14.5388 18.668 14.5588 18.704 14.4958 18.787L12.9058 17.574C12.6708 17.882 12.5848 18.237 12.5358 18.508C12.4858 18.79 12.4518 19.144 12.4118 19.538L14.4008 19.737ZM14.1418 20.916C14.2518 20.702 14.3018 20.492 14.3318 20.312C14.3618 20.142 14.3798 19.941 14.4008 19.737L12.4118 19.538C12.3986 19.6864 12.3812 19.8335 12.3598 19.981C12.3468 20.061 12.3418 20.044 12.3648 19.999L14.1418 20.916ZM13.1008 21.859C13.5504 21.6809 13.9202 21.3458 14.1418 20.916L12.3658 20L13.1008 21.859ZM11.9008 21.999C12.1058 21.999 12.3088 21.999 12.4808 21.988C12.6628 21.976 12.8768 21.949 13.1008 21.859L12.3658 20C12.4128 19.982 12.4288 19.988 12.3488 19.994C12.2002 20.0001 12.0515 20.0021 11.9028 20L11.9008 21.999ZM10.6378 21.999H11.9008L11.9018 19.999H10.6378V21.999ZM9.43977 21.859C9.66277 21.947 9.87677 21.976 10.0598 21.988C10.2308 21.999 10.4338 21.999 10.6378 21.999V19.999C10.4068 19.999 10.2818 19.999 10.1918 19.993C10.1118 19.987 10.1278 19.981 10.1748 19.999L9.43977 21.859ZM8.39677 20.916C8.61884 21.3462 8.98943 21.6813 9.43977 21.859L10.1748 19.999L8.39677 20.916ZM8.13877 19.737C8.15877 19.941 8.17877 20.142 8.20677 20.312C8.23677 20.492 8.28677 20.702 8.39677 20.916L10.1768 20C10.1998 20.044 10.1948 20.061 10.1818 19.982C10.1607 19.8348 10.1437 19.6871 10.1308 19.539L8.13877 19.737ZM8.04377 18.787C7.98077 18.705 8.00077 18.667 8.03577 18.863C8.06877 19.048 8.09577 19.31 8.13877 19.737L10.1288 19.538C10.0888 19.144 10.0548 18.79 10.0038 18.508C9.95477 18.238 9.86877 17.883 9.63377 17.575L8.04377 18.787ZM8.04377 18.787L9.63377 17.575C9.41976 17.2941 9.13521 17.075 8.80905 16.9397C8.48288 16.8045 8.12672 16.758 7.77677 16.805L8.04377 18.787ZM7.30477 19.392C7.63777 19.12 7.84077 18.954 7.99577 18.847C8.15877 18.734 8.14677 18.774 8.04377 18.787L7.77677 16.805C7.39277 16.857 7.08077 17.047 6.85477 17.205C6.61977 17.367 6.34477 17.593 6.03877 17.844L7.30477 19.392ZM6.28877 20.042C6.49008 19.975 6.67944 19.8765 6.84977 19.75C6.98977 19.65 7.14677 19.521 7.30477 19.392L6.03977 17.845C5.9257 17.9406 5.80999 18.0329 5.69077 18.122C5.62577 18.169 5.63477 18.154 5.68177 18.138L6.28877 20.042ZM4.88477 19.972C5.32888 20.1644 5.82772 20.1893 6.28877 20.042L5.67977 18.137L4.88477 19.972ZM3.93777 19.224C4.08277 19.369 4.22577 19.512 4.35577 19.626C4.49277 19.746 4.66377 19.877 4.88577 19.973L5.67977 18.137C5.72577 18.157 5.73277 18.173 5.67277 18.12C5.56325 18.0196 5.45654 17.9163 5.35277 17.81L3.93777 19.224ZM3.04477 18.33L3.93877 19.224L5.35277 17.81L4.45877 16.916L3.04477 18.33ZM2.29677 17.384C2.39177 17.604 2.52277 17.776 2.64277 17.914C2.75677 18.043 2.89977 18.186 3.04477 18.33L4.45877 16.916C4.35249 16.8122 4.24911 16.7055 4.14877 16.596C4.09577 16.536 4.11177 16.543 4.13177 16.589L2.29677 17.384ZM2.22677 15.98C2.07945 16.441 2.10432 16.9399 2.29677 17.384L4.13177 16.589L2.22677 15.98ZM2.87677 14.964C2.75259 15.1118 2.6332 15.2635 2.51877 15.419C2.3923 15.5893 2.29374 15.7787 2.22677 15.98L4.13177 16.589C4.11577 16.636 4.10177 16.645 4.14777 16.579C4.19977 16.506 4.27777 16.409 4.42477 16.23L2.87677 14.964ZM3.48077 14.225C3.49477 14.122 3.53477 14.11 3.42177 14.273C3.31477 14.428 3.14877 14.632 2.87677 14.964L4.42477 16.23C4.67477 15.924 4.90177 15.649 5.06477 15.414C5.22177 15.188 5.41177 14.876 5.46377 14.492L3.48077 14.225ZM3.48077 14.225L5.46377 14.492C5.51077 14.142 5.46429 13.7859 5.32905 13.4597C5.1938 13.1335 4.97462 12.849 4.69377 12.635L3.48077 14.225ZM2.53077 14.13C2.95877 14.173 3.22077 14.2 3.40577 14.233C3.60077 14.268 3.56377 14.288 3.48077 14.225L4.69377 12.635C4.38577 12.4 4.03177 12.314 3.75977 12.265C3.47877 12.215 3.12477 12.18 2.72977 12.14L2.53077 14.13ZM1.35277 13.872C1.56677 13.982 1.77677 14.032 1.95677 14.062C2.12677 14.09 2.32777 14.111 2.53177 14.131L2.72977 12.14C2.58167 12.1274 2.43495 12.1108 2.28777 12.09C2.20777 12.076 2.22477 12.071 2.26977 12.094L1.35277 13.872ZM0.410772 12.83C0.588503 13.2803 0.923559 13.6509 1.35377 13.873L2.27077 12.095L0.410772 12.83ZM0.270772 11.632C0.270772 11.836 0.270772 12.039 0.281772 12.211C0.293772 12.393 0.321772 12.607 0.411772 12.831L2.27077 12.094C2.28877 12.141 2.28277 12.157 2.27777 12.077C2.27131 11.9287 2.26898 11.7804 2.27077 11.632H0.270772ZM0.270772 10.368V11.632H2.27077V10.368H0.270772ZM0.410772 9.16899C0.335118 9.36749 0.291573 9.57678 0.281772 9.78899C0.269772 9.96099 0.270772 10.164 0.270772 10.369H2.27077C2.27077 10.137 2.27077 10.012 2.27777 9.92199C2.28277 9.84199 2.28877 9.85799 2.27077 9.90499L0.410772 9.16899ZM1.35377 8.12799C0.923919 8.34957 0.588911 8.71939 0.410772 9.16899L2.27077 9.90499L1.35377 8.12799ZM2.53277 7.86799C2.32877 7.88899 2.12777 7.90799 1.95777 7.93799C1.77777 7.96799 1.56777 8.01799 1.35377 8.12799L2.27077 9.90499C2.22577 9.92799 2.20977 9.92299 2.28877 9.90999C2.43594 9.88888 2.58366 9.87187 2.73177 9.85899L2.53277 7.86799ZM3.48277 7.77399C3.56577 7.71099 3.60277 7.73099 3.40677 7.76599C3.22177 7.79899 2.95977 7.82599 2.53277 7.86899L2.73177 9.85899C3.12477 9.81899 3.47977 9.78499 3.76177 9.73399C4.03277 9.68499 4.38777 9.59899 4.69577 9.36399L3.48277 7.77399ZM3.48277 7.77399L4.69577 9.36399C4.97644 9.14986 5.19543 8.86527 5.33049 8.53911C5.46556 8.21295 5.51189 7.85685 5.46477 7.50699L3.48277 7.77399ZM2.87777 7.03499C3.14977 7.36699 3.31577 7.57099 3.42377 7.72599C3.53677 7.88899 3.49677 7.87699 3.48277 7.77399L5.46477 7.50699C5.41277 7.12299 5.22377 6.81199 5.06577 6.58499C4.90277 6.34999 4.67577 6.07499 4.42577 5.76899L2.87777 7.03499ZM2.22777 6.01799C2.30077 6.24799 2.41377 6.43099 2.51977 6.57999C2.61977 6.71999 2.74877 6.87699 2.87777 7.03499L4.42577 5.76899C4.3302 5.65492 4.23783 5.53921 4.14877 5.41999C4.10177 5.35499 4.11777 5.36299 4.13277 5.40999L2.22777 6.01799ZM2.29777 4.61499C2.10557 5.05881 2.0807 5.55724 2.22777 6.01799L4.13277 5.40999L2.29777 4.61499ZM3.04577 3.66799C2.90077 3.81299 2.75777 3.95499 2.64377 4.08499C2.50104 4.24217 2.38424 4.42108 2.29777 4.61499L4.13277 5.40999C4.11277 5.45599 4.09677 5.46299 4.14977 5.40199C4.20977 5.33399 4.29677 5.24599 4.45977 5.08199L3.04577 3.66799ZM3.93977 2.77499L3.04577 3.66799L4.45977 5.08199L5.35477 4.18899L3.93977 2.77499ZM4.88577 2.02599C4.69179 2.11277 4.51288 2.2299 4.35577 2.37299C4.21283 2.5025 4.0741 2.63657 3.93977 2.77499L5.35477 4.18899C5.51777 4.02499 5.60577 3.93799 5.67377 3.87899C5.73377 3.82499 5.72677 3.84099 5.68077 3.86099L4.88577 2.02599ZM6.28977 1.95599C5.82872 1.80866 5.32988 1.83353 4.88577 2.02599L5.68077 3.86099L6.28977 1.95599ZM7.30477 2.60599C7.14677 2.47699 6.99177 2.34899 6.85077 2.24899C6.68051 2.12217 6.49114 2.02326 6.28977 1.95599L5.68077 3.86099C5.63377 3.84599 5.62477 3.83099 5.69077 3.87699C5.76377 3.92999 5.86077 4.00799 6.03977 4.15499L7.30477 2.60599ZM8.04477 3.21099C8.14777 3.22499 8.15977 3.26499 7.99677 3.15199C7.76069 2.97816 7.53056 2.79639 7.30677 2.60699L6.03977 4.15499C6.34577 4.40499 6.61977 4.63099 6.85477 4.79499C7.08077 4.95199 7.39277 5.14099 7.77677 5.19299L8.04477 3.21099ZM8.04477 3.21099L7.77777 5.19299C8.12772 5.23999 8.48388 5.19351 8.81005 5.05826C9.13621 4.92302 9.42076 4.70384 9.63477 4.42299L8.04477 3.21099ZM8.13977 2.26099C8.09677 2.68899 8.06977 2.95099 8.03677 3.13599C8.00177 3.33099 7.98177 3.29399 8.04477 3.21099L9.63477 4.42299C9.86977 4.11499 9.95577 3.76099 10.0048 3.48999C10.0548 3.20899 10.0908 2.85399 10.1298 2.45999L8.13977 2.26099ZM8.39777 1.08299C8.30277 1.27296 8.23863 1.47684 8.20777 1.68699C8.17977 1.85699 8.15977 2.05799 8.13977 2.26199L10.1298 2.45999C10.1428 2.31193 10.1595 2.16522 10.1798 2.01799C10.1938 1.93799 10.1988 1.95599 10.1758 1.99999L8.39777 1.08299ZM9.44077 0.13999C8.99043 0.317721 8.61984 0.652776 8.39777 1.08299L10.1758 1.99999L9.44077 0.13999ZM10.6388 -1.01115e-05C10.4348 -1.01115e-05 10.2318 -1.00741e-05 10.0598 0.0109899C9.84757 0.02079 9.63828 0.0643357 9.43977 0.13999L10.1768 1.99999C10.1298 2.01799 10.1138 2.01199 10.1938 2.00699C10.2838 2.00099 10.4088 1.99999 10.6398 1.99999L10.6388 -1.01115e-05ZM11.9028 -1.01115e-05H10.6388V1.99999H11.9028V-1.01115e-05ZM13.1008 0.13999C12.9023 0.0643357 12.693 0.02079 12.4808 0.0109899C12.3108 -0.00101007 12.1078 -1.01115e-05 11.9038 -1.01115e-05V1.99999C12.1348 1.99999 12.2598 1.99999 12.3498 2.00699C12.4298 2.01199 12.4128 2.01799 12.3658 1.99999L13.1008 0.13999ZM14.1438 1.08299C13.9217 0.652776 13.5511 0.317721 13.1008 0.13999L12.3658 1.99999L14.1438 1.08299ZM14.2708 11C14.2708 11.7956 13.9547 12.5587 13.3921 13.1213C12.8295 13.6839 12.0664 14 11.2708 14V16C12.5969 16 13.8686 15.4732 14.8063 14.5355C15.744 13.5978 16.2708 12.3261 16.2708 11H14.2708ZM11.2708 7.99999C12.0664 7.99999 12.8295 8.31606 13.3921 8.87867C13.9547 9.44128 14.2708 10.2043 14.2708 11H16.2708C16.2708 9.67391 15.744 8.40214 14.8063 7.46446C13.8686 6.52677 12.5969 5.99999 11.2708 5.99999V7.99999ZM8.27077 11C8.27077 10.2043 8.58684 9.44128 9.14945 8.87867C9.71206 8.31606 10.4751 7.99999 11.2708 7.99999V5.99999C9.94469 5.99999 8.67292 6.52677 7.73524 7.46446C6.79756 8.40214 6.27077 9.67391 6.27077 11H8.27077ZM11.2708 14C10.4751 14 9.71206 13.6839 9.14945 13.1213C8.58684 12.5587 8.27077 11.7956 8.27077 11H6.27077C6.27077 12.3261 6.79756 13.5978 7.73524 14.5355C8.67292 15.4732 9.94469 16 11.2708 16V14Z" fill="black"/>
</g>
<defs>
<filter id="filter0_d_0_1" x="-1719" y="-19" width="1771" height="1808" filterUnits="userSpaceOnUse" color-interpolation-filters="sRGB">
<feFlood flood-opacity="0" result="BackgroundImageFix"/>
<feColorMatrix in="SourceAlpha" type="matrix" values="0 0 0 0 0 0 0 0 0 0 0 0 0 0 0 0 0 0 127 0" result="hardAlpha"/>
<feOffset dy="4"/>
<feGaussianBlur stdDeviation="2"/>
<feComposite in2="hardAlpha" operator="out"/>
<feColorMatrix type="matrix" values="0 0 0 0 0 0 0 0 0 0 0 0 0 0 0 0 0 0 0.25 0"/>
<feBlend mode="normal" in2="BackgroundImageFix" result="effect1_dropShadow_0_1"/>
<feBlend mode="normal" in="SourceGraphic" in2="effect1_dropShadow_0_1" result="shape"/>
</filter>
<clipPath id="clip0_0_1">
<rect width="1763" height="1800" fill="white" transform="translate(-1715 -19)"/>
</clipPath>
</defs>
</svg>
