<svg width="21" height="22" viewBox="0 0 21 22" fill="none" xmlns="http://www.w3.org/2000/svg">
<rect width="21" height="22" fill="#F5F5F5"/>
<g clip-path="url(#clip0_0_1)" filter="url(#filter0_d_0_1)">
<rect width="1763" height="1800" transform="translate(-1642 -19)" fill="white"/>
<mask id="path-1-inside-1_0_1" fill="white">
<path d="M-25.9166 -19H47.5417V41H-25.9166V-19Z"/>
</mask>
<path d="M-25.9166 -19H47.5417V41H-25.9166V-19Z" fill="#FFFCF5"/>
<path d="M47.5417 41V42H48.5417V41H47.5417ZM47.5417 -19H46.5417V41H47.5417H48.5417V-19H47.5417ZM47.5417 41V40H-25.9166V41V42H47.5417V41Z" fill="black" mask="url(#path-1-inside-1_0_1)"/>
<path d="M0.8195 1.94151C1.055 1.04301 1.874 0.500012 2.735 0.500012C3.266 0.500012 3.749 0.699512 4.1165 1.02501C4.52168 0.685132 5.03364 0.49884 5.5625 0.49884C6.09136 0.49884 6.60332 0.685132 7.0085 1.02501C7.38871 0.685985 7.88059 0.499062 8.39 0.500012C9.251 0.500012 10.07 1.04301 10.3055 1.94151C10.5305 2.79951 10.8125 4.18251 10.8125 5.75001C10.8125 6.62535 10.5936 7.48678 10.1757 8.25594C9.75786 9.0251 9.15432 9.67758 8.42 10.154C8.0135 10.4195 7.8125 10.7615 7.8125 11.054V11.648C7.8125 11.682 7.8145 11.715 7.8185 11.747C7.8695 12.119 8.054 13.5005 8.2265 14.933C8.396 16.3385 8.5625 17.8715 8.5625 18.5C8.5625 19.2957 8.24643 20.0587 7.68382 20.6213C7.12121 21.1839 6.35815 21.5 5.5625 21.5C4.76685 21.5 4.00379 21.1839 3.44118 20.6213C2.87857 20.0587 2.5625 19.2957 2.5625 18.5C2.5625 17.87 2.729 16.34 2.8985 14.933C3.071 13.5005 3.2555 12.119 3.3065 11.747L3.3125 11.648V11.054C3.3125 10.7615 3.1115 10.4195 2.705 10.154C1.97068 9.67758 1.36714 9.0251 0.949291 8.25594C0.53144 7.48678 0.312537 6.62535 0.3125 5.75001C0.3125 4.18251 0.5945 2.79951 0.8195 1.94151ZM7.8125 6.50001C7.8125 6.69892 7.73348 6.88969 7.59283 7.03034C7.45218 7.17099 7.26141 7.25001 7.0625 7.25001C6.86359 7.25001 6.67282 7.17099 6.53217 7.03034C6.39152 6.88969 6.3125 6.69892 6.3125 6.50001V2.75001C6.3125 2.5511 6.23348 2.36033 6.09283 2.21968C5.95218 2.07903 5.76141 2.00001 5.5625 2.00001C5.36359 2.00001 5.17282 2.07903 5.03217 2.21968C4.89152 2.36033 4.8125 2.5511 4.8125 2.75001V6.50001C4.8125 6.69892 4.73348 6.88969 4.59283 7.03034C4.45218 7.17099 4.26141 7.25001 4.0625 7.25001C3.86359 7.25001 3.67282 7.17099 3.53217 7.03034C3.39152 6.88969 3.3125 6.69892 3.3125 6.50001V2.57751C3.3125 2.42435 3.25166 2.27746 3.14335 2.16916C3.03505 2.06086 2.88816 2.00001 2.735 2.00001C2.486 2.00001 2.315 2.14851 2.27 2.32251C1.9744 3.44131 1.82069 4.59285 1.8125 5.75001C1.81243 6.37557 1.96885 6.9912 2.26751 7.54085C2.56618 8.09051 2.99761 8.55671 3.5225 8.89701C4.181 9.32451 4.8125 10.076 4.8125 11.054V11.648C4.8125 11.748 4.806 11.848 4.793 11.948C4.742 12.317 4.559 13.6895 4.388 15.113C4.214 16.5605 4.0625 17.984 4.0625 18.5C4.0625 18.8978 4.22054 19.2794 4.50184 19.5607C4.78314 19.842 5.16468 20 5.5625 20C5.96032 20 6.34186 19.842 6.62316 19.5607C6.90446 19.2794 7.0625 18.8978 7.0625 18.5C7.0625 17.984 6.9125 16.5605 6.737 15.1115C6.566 13.6895 6.383 12.317 6.332 11.9465C6.32059 11.8479 6.31408 11.7488 6.3125 11.6495V11.0555C6.3125 10.0775 6.944 9.32601 7.6025 8.89851C8.12761 8.55807 8.55917 8.09163 8.85784 7.54169C9.15652 6.99176 9.31282 6.37582 9.3125 5.75001C9.3125 4.35201 9.0605 3.10401 8.855 2.32251C8.81 2.15001 8.6375 2.00001 8.39 2.00001C8.23684 2.00001 8.08995 2.06086 7.98165 2.16916C7.87334 2.27746 7.8125 2.42435 7.8125 2.57751V6.50001ZM12.3125 7.25001C12.3125 5.4598 13.0237 3.74291 14.2895 2.47704C15.5554 1.21117 17.2723 0.500012 19.0625 0.500012C19.2614 0.500012 19.4522 0.57903 19.5928 0.719682C19.7335 0.860334 19.8125 1.0511 19.8125 1.25001V10.2095L19.841 10.475C19.9603 11.5945 20.0748 12.7145 20.1845 13.835C20.369 15.719 20.5625 17.831 20.5625 18.5C20.5625 19.2957 20.2464 20.0587 19.6838 20.6213C19.1212 21.1839 18.3581 21.5 17.5625 21.5C16.7669 21.5 16.0038 21.1839 15.4412 20.6213C14.8786 20.0587 14.5625 19.2957 14.5625 18.5C14.5625 17.831 14.756 15.719 14.9405 13.835C15.035 12.8795 15.1295 11.9645 15.2 11.2865L15.23 11H13.8125C13.4147 11 13.0331 10.842 12.7518 10.5607C12.4705 10.2794 12.3125 9.89784 12.3125 9.50001V7.25001ZM16.808 10.3295L16.7765 10.6325C16.6593 11.7487 16.5453 12.8652 16.4345 13.982C16.244 15.9125 16.0625 17.927 16.0625 18.5C16.0625 18.8978 16.2205 19.2794 16.5018 19.5607C16.7831 19.842 17.1647 20 17.5625 20C17.9603 20 18.3419 19.842 18.6232 19.5607C18.9045 19.2794 19.0625 18.8978 19.0625 18.5C19.0625 17.9255 18.881 15.9125 18.6905 13.982C18.5805 12.8651 18.4665 11.7486 18.3485 10.6325L18.317 10.331L18.3125 10.25V2.05251C17.0628 2.23289 15.9199 2.85764 15.0934 3.81224C14.2669 4.76684 13.8122 5.98734 13.8125 7.25001V9.50001H16.0625C16.1677 9.50005 16.2717 9.52221 16.3677 9.56505C16.4638 9.60789 16.5497 9.67045 16.62 9.74868C16.6904 9.8269 16.7434 9.91904 16.7758 10.0191C16.8082 10.1192 16.8191 10.2249 16.808 10.3295Z" fill="black"/>
</g>
<defs>
<filter id="filter0_d_0_1" x="-1646" y="-19" width="1771" height="1808" filterUnits="userSpaceOnUse" color-interpolation-filters="sRGB">
<feFlood flood-opacity="0" result="BackgroundImageFix"/>
<feColorMatrix in="SourceAlpha" type="matrix" values="0 0 0 0 0 0 0 0 0 0 0 0 0 0 0 0 0 0 127 0" result="hardAlpha"/>
<feOffset dy="4"/>
<feGaussianBlur stdDeviation="2"/>
<feComposite in2="hardAlpha" operator="out"/>
<feColorMatrix type="matrix" values="0 0 0 0 0 0 0 0 0 0 0 0 0 0 0 0 0 0 0.25 0"/>
<feBlend mode="normal" in2="BackgroundImageFix" result="effect1_dropShadow_0_1"/>
<feBlend mode="normal" in="SourceGraphic" in2="effect1_dropShadow_0_1" result="shape"/>
</filter>
<clipPath id="clip0_0_1">
<rect width="1763" height="1800" fill="white" transform="translate(-1642 -19)"/>
</clipPath>
</defs>
</svg>
